<svg xmlns="http://www.w3.org/2000/svg" viewBox="0 0 512 512" role="img" aria-labelledby="title"><title id="title">Editorial Illustration Image Pipeline</title><defs><linearGradient id="bg" x1="0" y1="0" x2="1" y2="1"><stop stop-color="#FBE1D5"/><stop offset="1" stop-color="#F2B7A4"/></linearGradient><filter id="shadow"><feDropShadow dx="0" dy="12" stdDeviation="12" flood-opacity=".22"/></filter></defs><rect width="512" height="512" rx="104" fill="#F8D6C9"/><g transform="rotate(-7 250 250)" filter="url(#shadow)"><rect x="88" y="88" width="322" height="318" rx="18" fill="#FFF5EB"/><path d="M116 302c38-48 66-78 96-88 29-10 54 3 78 29 22 23 49 37 92 42v93H116z" fill="#EDBDAB"/><path d="M116 324c48-34 79-51 109-52 35-1 63 21 95 36 22 10 42 14 62 15v55H116z" fill="#A77074"/><path d="M214 278l50-86 48 86z" fill="#A77074"/><path d="M260 196l19-31 17 31z" fill="#70474F"/><circle cx="158" cy="158" r="32" fill="#E6A078" opacity=".9"/><path d="M136 356c32-26 53-38 77-43M282 329c31-20 58-28 89-26" fill="none" stroke="#70474F" stroke-width="7" stroke-linecap="round"/><path d="M150 246c18-16 33-25 50-29M319 228c17 8 30 18 43 32" fill="none" stroke="#A77074" stroke-width="5" stroke-linecap="round" opacity=".7"/></g><g transform="translate(326 62) rotate(8)"><rect width="126" height="82" rx="18" fill="#70474F"/><g fill="#E6A078"><rect x="12" y="12" width="28" height="24" rx="7"/><rect x="49" y="12" width="28" height="24" rx="7" fill="#A77074"/><rect x="86" y="12" width="28" height="24" rx="7" fill="#E6A078"/><rect x="12" y="46" width="28" height="24" rx="7" fill="#A77074"/><rect x="49" y="46" width="28" height="24" rx="7" fill="#A77074"/><rect x="86" y="46" width="28" height="24" rx="7" fill="#EDBDAB"/></g></g><path d="M388 354l62 90" stroke="#70474F" stroke-width="16" stroke-linecap="round"/><path d="M374 332l27 34" stroke="#E6A078" stroke-width="18" stroke-linecap="round"/><path d="M105 414c18-36 22-67 14-93M105 381c-20-12-31-25-35-39M112 365c20-12 31-27 36-45" fill="none" stroke="#A77074" stroke-width="7" stroke-linecap="round"/></svg>