<svg xmlns="http://www.w3.org/2000/svg" viewBox="0 0 128 128" role="img" aria-labelledby="title"><title id="title">Post-Implementation Doc Updater Small Icon</title><defs><linearGradient id="bg" x1="0" y1="0" x2="1" y2="1"><stop stop-color="#70474F"/><stop offset="1" stop-color="#70474F"/></linearGradient></defs><rect width="128" height="128" rx="28" fill="#F8D6C9"/><rect x="25" y="20" width="49" height="76" rx="7" fill="#FFF5EB"/><path d="M64 20h10v10z" fill="#EDBDAB"/><rect x="34" y="39" width="28" height="4" rx="2" fill="#A77074"/><rect x="34" y="50" width="34" height="4" rx="2" fill="#A77074"/><rect x="34" y="62" width="26" height="4" rx="2" fill="#E6A078"/><rect x="34" y="74" width="33" height="4" rx="2" fill="#A77074"/><rect x="70" y="52" width="36" height="34" rx="9" fill="#70474F" stroke="#C87970" stroke-width="3"/><path d="M80 63l10 6-10 6" fill="none" stroke="#FFF5EB" stroke-width="5" stroke-linecap="round" stroke-linejoin="round"/><path d="M92 78h8" stroke="#FFF5EB" stroke-width="4" stroke-linecap="round"/><path d="M79 32c13 5 21 13 25 25" fill="none" stroke="#E6A078" stroke-width="5" stroke-linecap="round"/><path d="M104 57l-9-5 10-5" fill="none" stroke="#E6A078" stroke-width="5" stroke-linecap="round" stroke-linejoin="round"/><path d="M49 105c-13-4-22-13-25-25" fill="none" stroke="#C87970" stroke-width="5" stroke-linecap="round"/><path d="M24 80l9 5-10 5" fill="none" stroke="#C87970" stroke-width="5" stroke-linecap="round" stroke-linejoin="round"/></svg>